<svg version="1.1" viewBox="0 0 640 400" xmlns="http://www.w3.org/2000/svg" xmlns:xlink="http://www.w3.org/1999/xlink"
  xmlns:svgjs="http://svgjs.dev/svgjs" matcher="0.9245996121486133">
  <g viewBox="0 0 640 400" matcher="0.9245996121486133">
    <g matcher="0.9245996121486133">
      <g matcher="0.9245996121486133">
        <g matcher="0.9245996121486133"><svg viewBox="0 0 640 400" data-background-color="#ffffff"
            preserveAspectRatio="xMidYMid meet" height="400" width="640" xmlns="http://www.w3.org/2000/svg"
            xmlns:xlink="http://www.w3.org/1999/xlink">
            <!-- <rect width="640" height="400" x="0" y="0" opacity="1" fill="#ffffff" data-fill-palette-color="background"
              id="background"></rect> -->
            <g id="tight-bounds" transform="matrix(1,0,0,1,122.24000000000001,76.4)"><svg viewBox="0 0 395.52 247.2"
                height="247.2" width="395.52">
                <g><svg viewBox="0 0 395.52 247.2" height="247.2" width="395.52">
                    <g transform="matrix(1,0,0,1,20.991284916201153,0)"><svg viewBox="0 0 353.5374301675977 247.2"
                        height="247.2" width="353.5374301675977">
                        <g><svg viewBox="0 0 353.5374301675977 247.2" height="247.2" width="353.5374301675977">
                            <g><svg viewBox="0 0 353.5374301675977 247.2" height="247.2" width="353.5374301675977">
                                <g><svg viewBox="0 0 353.5374301675977 247.2" height="247.2" width="353.5374301675977">
                                    <g id="textblocktransform"><svg viewBox="0 0 353.5374301675977 247.2" height="247.2"
                                        width="353.5374301675977" id="textblock">
                                        <g><svg viewBox="0 0 353.5374301675977 247.2" height="247.2"
                                            width="353.5374301675977">
                                            <g transform="matrix(1,0,0,1,0,0)"><svg width="353.5374301675977"
                                                viewBox="-3.099999964237213 -39.54999923706055 65 45.75" height="247.2"
                                                data-palette-color="#7e91c6">
                                                <path
                                                  d="M23.3-28.8Q23.95-27.4 24.13-25.93 24.3-24.45 24.3-22.35L24.3-22.35 24.3-19.25Q24.3-18.5 24.25-15.6 24.2-12.7 24-10.25L24-10.25 23.85-8.6Q23.45-4 21.85-1.6L21.85-1.6Q20.45 0.35 17.73 1.28 15 2.2 12.15 2.2L12.15 2.2Q8.75 2.2 6.3 1.13 3.85 0.05 2.55-2.65L2.55-2.65 2.55-2.6Q1.75-3.95 1.5-5.7 1.25-7.45 1.2-9.9L1.2-9.9Q1.2-11.05 1.15-11.6L1.15-11.6Q0.9-15.85 0.9-19.5L0.9-19.5 0.9-21.35Q0.9-25.8 1.7-29.15 2.5-32.5 5.1-34L5.1-34Q8.25-35.55 12-35.55L12-35.55Q14.6-35.55 17.07-34.68 19.55-33.8 20.95-32.1L20.95-32.1Q22.6-30.45 23.3-28.75L23.3-28.75 23.3-28.8ZM12-35Q9.7-35 7.55-34.43 5.4-33.85 4.2-32.65L4.2-32.65Q2.45-30.7 1.93-27.88 1.4-25.05 1.4-21.35L1.4-21.35 1.4-19.6Q1.4-17.6 1.5-15.13 1.6-12.65 1.65-11.65L1.65-11.65 1.8-8.4Q1.9-3.25 4.28-1.28 6.65 0.7 11.15 0.7L11.15 0.7Q13.9 0.7 16.53-0.2 19.15-1.1 20.45-2.9L20.45-2.9Q22-5.3 22.35-9.65L22.35-9.65 22.5-11.3Q22.75-14.5 22.75-18.9L22.75-18.9 22.75-23.95Q22.75-25.8 22.58-27.1 22.4-28.4 21.85-29.6L21.85-29.6Q20.9-32.3 18.15-33.65 15.4-35 12-35L12-35ZM16.5-17.4L16.5-15 16.5-13.3Q16.5-10.75 16.32-9.7 16.15-8.65 15.4-7.85L15.4-7.85Q14.8-7.1 13.8-6.7 12.8-6.3 11.75-6.3L11.75-6.3Q9.85-6.3 8.88-7.28 7.9-8.25 7.58-9.65 7.25-11.05 7.1-13.3L7.1-13.3Q7-14.9 6.9-15.55L6.9-15.55Q6.8-17.25 6.8-18.1L6.8-18.1Q6.8-28.15 12.35-28.15L12.35-28.15Q14.9-28.15 15.65-25.73 16.4-23.3 16.4-20.8L16.4-20.8 16.5-17.4ZM15.9-20.8L15.9-21Q15.85-21.4 15.78-22.98 15.7-24.55 15.13-25.6 14.55-26.65 13.4-26.65L13.4-26.65Q11.85-26.65 10.55-25.45 9.25-24.25 8.85-22.6L8.85-22.6 8.85-22.65Q8.35-20.45 8.35-17.1L8.35-17.1Q8.35-15.45 8.4-14.6L8.4-14.6 8.4-14.65Q8.6-13.25 8.7-11.85L8.7-11.85Q8.75-11.55 8.88-10.2 9-8.85 9.35-7.65L9.35-7.65 9.3-7.7 9.45-7.4Q10.45-6.8 11.75-6.8L11.75-6.8Q13.8-6.8 15.05-8.2L15.05-8.2 15-8.15Q15.7-9 15.85-9.83 16-10.65 16-13.05L16-13.05 16-15 16-17.4 15.9-20.8ZM26.4 1.45L26.25 0.45 25.4 0.45Q25.2-0.8 25.2-2.6L25.2-2.6 25.25-4.85Q25.3-5.35 25.3-6.15L25.3-6.15Q26.7-6.75 29.2-6.75L29.2-6.75Q31.1-6.75 32.4-6.15L32.4-6.15 32.5-5.45Q32.65-5.4 32.95-5.35 33.25-5.3 33.37-5.08 33.5-4.85 33.5-4.3L33.5-4.3Q33.5-3.35 33.35-1.43 33.2 0.5 33.1 1.5L33.1 1.5 26.4 1.45ZM31.75 0L31.75-0.1Q31.75-0.8 31.9-3.25 32.05-5.7 32.05-5.95L32.05-5.95Q31.4-6.25 29.2-6.25L29.2-6.25Q26.65-6.25 25.8-5.85L25.8-5.85Q25.8-5.25 25.75-4.8L25.75-4.8 25.7-2.35Q25.7-0.6 25.85-0.05L25.85-0.05 26 0 31.75 0ZM56.9-28.8Q57.55-27.4 57.72-25.93 57.9-24.45 57.9-22.35L57.9-22.35 57.9-19.25Q57.9-18.5 57.85-15.6 57.8-12.7 57.6-10.25L57.6-10.25 57.45-8.6Q57.05-4 55.45-1.6L55.45-1.6Q54.05 0.35 51.32 1.28 48.6 2.2 45.75 2.2L45.75 2.2Q42.35 2.2 39.9 1.13 37.45 0.05 36.15-2.65L36.15-2.65 36.15-2.6Q35.35-3.95 35.1-5.7 34.85-7.45 34.8-9.9L34.8-9.9Q34.8-11.05 34.75-11.6L34.75-11.6Q34.5-15.85 34.5-19.5L34.5-19.5 34.5-21.35Q34.5-25.8 35.3-29.15 36.1-32.5 38.7-34L38.7-34Q41.85-35.55 45.6-35.55L45.6-35.55Q48.2-35.55 50.67-34.68 53.15-33.8 54.55-32.1L54.55-32.1Q56.2-30.45 56.9-28.75L56.9-28.75 56.9-28.8ZM45.6-35Q43.3-35 41.15-34.43 39-33.85 37.8-32.65L37.8-32.65Q36.05-30.7 35.52-27.88 35-25.05 35-21.35L35-21.35 35-19.6Q35-17.6 35.1-15.13 35.2-12.65 35.25-11.65L35.25-11.65 35.4-8.4Q35.5-3.25 37.87-1.28 40.25 0.7 44.75 0.7L44.75 0.7Q47.5 0.7 50.12-0.2 52.75-1.1 54.05-2.9L54.05-2.9Q55.6-5.3 55.95-9.65L55.95-9.65 56.1-11.3Q56.35-14.5 56.35-18.9L56.35-18.9 56.35-23.95Q56.35-25.8 56.17-27.1 56-28.4 55.45-29.6L55.45-29.6Q54.5-32.3 51.75-33.65 49-35 45.6-35L45.6-35ZM50.1-17.4L50.1-15 50.1-13.3Q50.1-10.75 49.92-9.7 49.75-8.65 49-7.85L49-7.85Q48.4-7.1 47.4-6.7 46.4-6.3 45.35-6.3L45.35-6.3Q43.45-6.3 42.47-7.28 41.5-8.25 41.17-9.65 40.85-11.05 40.7-13.3L40.7-13.3Q40.6-14.9 40.5-15.55L40.5-15.55Q40.4-17.25 40.4-18.1L40.4-18.1Q40.4-28.15 45.95-28.15L45.95-28.15Q48.5-28.15 49.25-25.73 50-23.3 50-20.8L50-20.8 50.1-17.4ZM49.5-20.8L49.5-21Q49.45-21.4 49.37-22.98 49.3-24.55 48.72-25.6 48.15-26.65 47-26.65L47-26.65Q45.45-26.65 44.15-25.45 42.85-24.25 42.45-22.6L42.45-22.6 42.45-22.65Q41.95-20.45 41.95-17.1L41.95-17.1Q41.95-15.45 42-14.6L42-14.6 42-14.65Q42.2-13.25 42.3-11.85L42.3-11.85Q42.35-11.55 42.47-10.2 42.6-8.85 42.95-7.65L42.95-7.65 42.9-7.7 43.05-7.4Q44.05-6.8 45.35-6.8L45.35-6.8Q47.4-6.8 48.65-8.2L48.65-8.2 48.6-8.15Q49.3-9 49.45-9.83 49.6-10.65 49.6-13.05L49.6-13.05 49.6-15 49.6-17.4 49.5-20.8Z"
                                                  opacity="1" transform="matrix(1,0,0,1,0,0)" fill="#7e91c6"
                                                  class="wordmark-text-0" data-fill-palette-color="primary" id="text-0">
                                                </path>
                                              </svg></g>
                                          </svg></g>
                                      </svg></g>
                                  </svg></g>
                              </svg></g>
                          </svg></g>
                      </svg></g>
                  </svg></g>
                <defs></defs>
              </svg>
              <rect width="395.52" height="247.2" fill="none" stroke="none" visibility="hidden"></rect>
            </g>
          </svg></g>
      </g>
    </g>
  </g>
  <rect width="319.9868781304258" height="215.9737525445373" x="161.00655139804428" y="93.01313209103172" rx="2.5"
    ry="2.5" fill="transparent" class="logo-element-hover-target"></rect>
</svg>