<svg version="1.1" viewBox="0 0 640 400" xmlns="http://www.w3.org/2000/svg" xmlns:xlink="http://www.w3.org/1999/xlink"
  xmlns:svgjs="http://svgjs.dev/svgjs" matcher="0.5237875987008662">
  <g viewBox="0 0 640 400" matcher="0.5237875987008662">
    <g matcher="0.5237875987008662">
      <g matcher="0.5237875987008662">
        <g matcher="0.5237875987008662"><svg viewBox="0 0 800 800" data-background-color="#ffffff"
            preserveAspectRatio="xMidYMid meet" height="800" width="800" xmlns="http://www.w3.org/2000/svg"
            xmlns:xlink="http://www.w3.org/1999/xlink">
            <!-- <rect width="640" height="400" x="0" y="0" opacity="1" fill="#ffffff" data-fill-palette-color="background"
              id="background"></rect> -->
            <g id="tight-bounds" transform="matrix(1,0,0,1,160,20)"><svg viewBox="0 0 320 360" height="360" width="320">
                <g><svg></svg></g>
                <g><svg viewBox="0 0 320 360" height="360" width="320">
                    <g>
                      <path xmlns="http://www.w3.org/2000/svg"
                        d="M20.961 227.22l3.726 4.658-1.863-6.056c-0.466-2.795-3.726 0.466-1.863 1.398M25.153 224.425c1.397 2.329 2.795 4.658 2.795 6.987 0 3.261 2.795 4.658 5.123 5.589-3.261-3.726-5.124-13.974-7.918-12.576M204.017 26.929c7.918 0 15.371-0.932 23.756 0.931 20.495 5.124 37.729 15.371 49.374 29.811l32.606 52.169c1.397 13.042 4.192 27.482 3.726 43.319 3.261 0 2.795-4.658 6.521-5.59-3.726 9.316-5.59 20.961-6.521 34.469-2.329-7.453 0-18.632 0.466-24.687-3.261 5.124-5.124 1.397-5.124-0.932 0.466-3.726-1.397-3.261-2.795-4.658-5.124-4.658-8.384-9.782-12.11-17.7 2.329-6.055 2.795-14.905-4.658-19.563-2.329-1.397-5.124-3.726-6.521-7.453-1.863-5.124-5.124-11.179-4.193-19.097 0.466-2.329-6.987 5.124-11.179 1.863-18.166-12.576-36.332-27.016-58.224-39.127-11.645 0-20.029-4.192-24.221-9.316-3.726-4.658-0.932-10.713 4.658-11.179 3.261 0 6.987-0.932 9.782 0.932 0.466-1.863 2.329-4.192 4.657-4.192M157.904 16.215l0.932 0.466c4.658 0.932 6.987 7.453 12.11 5.124 0 3.261 0.466 6.521-0.466 8.85-1.397 3.726-5.59 3.726-8.85 3.726-31.208-1.863-49.374 11.179-68.471 22.358-5.124 3.261-10.713 5.59-14.906 9.782-20.029 18.632-41.921 35.866-47.045 70.335l-4.192 38.195c-0.466 4.192-5.124 8.384-4.192 13.508l3.26 22.824c-3.261-3.261-5.124 0.932-4.192 2.795 0.466 1.397 2.329 6.055 5.124 1.863 3.726 6.987 7.453 20.495 12.576 26.55 15.837 18.632 36.332 35.4 53.101 52.169 4.192-0.932 7.453-0.932 8.384-3.727 1.397 2.795-1.397 5.59-3.726 6.056 7.453 4.658 15.837 8.85 27.016 9.781 14.44 0.932 27.948 3.261 40.524 6.522 6.521-1.863 13.042-2.795 20.029-3.261 2.329 0 3.726-3.726 6.521-4.658l0.466-4.658c2.795 4.192 2.329-1.397 0.466-4.192 3.261 2.795 4.192 5.124 5.589 6.987 0-1.397 3.726-6.521 3.727-0.466l0.931-6.055c1.397-0.932 1.863 5.124 3.261 0.931 1.397-4.192 4.192-0.932 6.987-2.329-0.932 1.863-0.466 5.59 2.794 3.261l3.727-3.261c2.329 5.59 6.055 3.261 7.918 2.329 20.495-13.042 40.99-28.413 60.553-43.784l-0.466 6.055 2.329-7.453c2.329 2.329 4.192 0.466 5.124-0.931 2.795-4.658 6.521-9.316 12.577-13.508-7.453 20.029-16.303 35.866-27.482 48.908l-4.658 5.59c0 3.261-0.932 7.453-4.658 7.918-1.863 0.466-5.59-0.932-8.384 1.863-1.397 1.863 3.261 5.59-0.466 2.795-3.261-2.329-6.521 0-10.248 0.932-2.795 0.932 1.863 3.726 2.795 5.589 0.932 1.863 1.863 3.726 1.398 6.056l-5.124-5.59c-6.055 3.261-9.782 9.316-14.906 13.974-2.329 1.863-1.397 5.124-1.397 7.918-3.261 0-6.987-0.932-8.85 0.932-1.397 1.863-0.932 4.658-0.932 7.453-4.658-0.466-5.124-7.453-9.315-6.056-4.192 0.932-8.85 1.397-12.577 3.727 2.795 5.59-4.658 2.329-3.726 3.26-6.987-4.192-13.042-7.453-20.495-4.658-15.837-5.124-35.4-2.795-49.84-0.931 0-2.329 0.466-4.658-0.466-5.124-0.932 2.329-3.726 1.397-3.26 1.397-8.85-6.055-17.7-9.782-27.016-14.905-8.384 0.932-16.303-3.261-18.632-5.59-6.521-6.055-13.974-2.795-20.029-4.192-13.042-3.261-17.7-16.769-19.098-26.084-0.932-4.658-4.658-6.521-6.055-6.056-6.055-19.563-15.371-37.263-22.824-55.429-1.863-4.658-1.397-9.316-1.397-14.44 2.329 0.932 4.658 0.466 4.192-2.794-2.329-15.371-7.918-27.016-13.974-38.195 3.261-15.837 3.726-34.469 11.179-48.443 6.521-12.576 18.632-19.098 27.016-29.811 2.795-3.726 2.795-8.85 5.59-12.11 9.316-9.316 18.632-19.098 28.879-27.482 4.658-3.726 10.247 0 17.234-1.397 2.329-8.384 11.645-15.837 20.495-13.508 3.726 0.932 11.179-8.85 13.508-9.782 3.726-1.397 1.863 3.726 1.863 6.987 8.85-6.987 20.961-10.713 32.14-14.906"
                        fill="#ffffff" fill-rule="nonzero" stroke="none" stroke-width="1" stroke-linecap="butt"
                        stroke-linejoin="miter" stroke-miterlimit="10" stroke-dasharray="" stroke-dashoffset="0"
                        font-family="none" font-weight="none" font-size="none" text-anchor="none"
                        style="mix-blend-mode: normal" data-fill-palette-color="tertiary"></path>
                    </g>
                    <g transform="matrix(1,0,0,1,64.00000000000001,136.55769230769232)"><svg
                        viewBox="0 0 191.99999999999997 86.88461538461537" height="86.88461538461537"
                        width="191.99999999999997">
                        <g><svg viewBox="0 0 191.99999999999997 86.88461538461537" height="86.88461538461537"
                            width="191.99999999999997">
                            <g><svg viewBox="0 0 191.99999999999997 86.88461538461537" height="86.88461538461537"
                                width="191.99999999999997">
                                <g id="textblocktransform"><svg viewBox="0 0 191.99999999999997 86.88461538461537"
                                    height="86.88461538461537" width="191.99999999999997" id="textblock">
                                    <g><svg viewBox="0 0 191.99999999999997 86.88461538461537"
                                        height="86.88461538461537" width="191.99999999999997">
                                        <g transform="matrix(1,0,0,1,0,0)"><svg width="191.99999999999997"
                                            viewBox="1.2000000476837158 -36.70000076293945 83.20000457763672 37.650001525878906"
                                            height="86.88461538461537" data-palette-color="#ffffff">
                                            <g class="wordmark-text-0" data-fill-palette-color="primary" id="text-0">
                                              <path
                                                d="M17.75 0.15L17.75 0.15Q12.4 0.15 8.7-2.2 5-4.55 3.1-8.7 1.2-12.85 1.2-18.25L1.2-18.25Q1.2-23.6 3.1-27.78 5-31.95 8.7-34.33 12.4-36.7 17.75-36.7L17.75-36.7Q23.1-36.7 26.78-34.33 30.45-31.95 32.35-27.78 34.25-23.6 34.25-18.25L34.25-18.25Q34.25-12.85 32.35-8.7 30.45-4.55 26.78-2.2 23.1 0.15 17.75 0.15ZM7.5-19.05L7.5-19.05Q7.5-17.5 8.25-16.13 9-14.75 11.2-13.93 13.4-13.1 17.75-13.1L17.75-13.1Q22.1-13.1 24.28-13.93 26.45-14.75 27.2-16.13 27.95-17.5 27.95-19.05L27.95-19.05Q27.95-20.65 27.2-21.93 26.45-23.2 24.28-23.98 22.1-24.75 17.75-24.75L17.75-24.75Q13.4-24.75 11.2-23.98 9-23.2 8.25-21.93 7.5-20.65 7.5-19.05ZM42.8 0.95L42.8 0.95Q39.85 0.95 38.2-0.63 36.55-2.2 36.55-4.8L36.55-4.8Q36.55-7.45 38.25-9.1 39.95-10.75 42.8-10.75L42.8-10.75Q45.6-10.75 47.27-9.13 48.95-7.5 48.95-4.85L48.95-4.85Q48.95-2.25 47.35-0.65 45.75 0.95 42.8 0.95ZM67.9 0.15L67.9 0.15Q62.55 0.15 58.85-2.2 55.15-4.55 53.25-8.7 51.35-12.85 51.35-18.25L51.35-18.25Q51.35-23.6 53.25-27.78 55.15-31.95 58.85-34.33 62.55-36.7 67.9-36.7L67.9-36.7Q73.25-36.7 76.92-34.33 80.6-31.95 82.5-27.78 84.4-23.6 84.4-18.25L84.4-18.25Q84.4-12.85 82.5-8.7 80.6-4.55 76.92-2.2 73.25 0.15 67.9 0.15ZM57.65-19.05L57.65-19.05Q57.65-17.5 58.4-16.13 59.15-14.75 61.35-13.93 63.55-13.1 67.9-13.1L67.9-13.1Q72.25-13.1 74.42-13.93 76.6-14.75 77.35-16.13 78.1-17.5 78.1-19.05L78.1-19.05Q78.1-20.65 77.35-21.93 76.6-23.2 74.42-23.98 72.25-24.75 67.9-24.75L67.9-24.75Q63.55-24.75 61.35-23.98 59.15-23.2 58.4-21.93 57.65-20.65 57.65-19.05Z"
                                                fill="#ffffff" data-fill-palette-color="primary"></path>
                                            </g>
                                          </svg></g>
                                      </svg></g>
                                  </svg></g>
                              </svg></g>
                          </svg></g>
                      </svg></g>
                  </svg></g>
                <defs></defs>
              </svg>
              <rect width="320" height="360" fill="none" stroke="none" visibility="hidden"></rect>
            </g>
          </svg></g>
      </g>
    </g>
  </g>
  <rect width="204.0000210156486" height="98.88461488642997" x="218.99999905378593" y="151.5577009200854" rx="2.5"
    ry="2.5" fill="transparent" class="logo-element-hover-target"></rect>
</svg>