<svg version="1.1" viewBox="0 0 640 400" xmlns="http://www.w3.org/2000/svg" xmlns:xlink="http://www.w3.org/1999/xlink"
  xmlns:svgjs="http://svgjs.dev/svgjs" matcher="0.8514766072824484">
  <g viewBox="0 0 640 400" matcher="0.8514766072824484">
    <g matcher="0.8514766072824484">
      <g matcher="0.8514766072824484">
        <g matcher="0.8514766072824484"><svg viewBox="0 0 640 400" data-background-color="#dedede"
            preserveAspectRatio="xMidYMid meet" height="400" width="640" xmlns="http://www.w3.org/2000/svg"
            xmlns:xlink="http://www.w3.org/1999/xlink">
            <rect width="640" height="400" x="0" y="0" opacity="1" fill="#dedede" data-fill-palette-color="background"
              id="background"></rect>
            <g id="tight-bounds" transform="matrix(1,0,0,1,160,20)"><svg viewBox="0 0 320 360" height="360" width="320">
                <g><svg></svg></g>
                <g><svg viewBox="0 0 320 360" height="360" width="320">
                    <g>
                      <path xmlns="http://www.w3.org/2000/svg"
                        d="M20.961 227.22l3.726 4.658-1.863-6.056c-0.466-2.795-3.726 0.466-1.863 1.398M25.153 224.425c1.397 2.329 2.795 4.658 2.795 6.987 0 3.261 2.795 4.658 5.123 5.589-3.261-3.726-5.124-13.974-7.918-12.576M204.017 26.929c7.918 0 15.371-0.932 23.756 0.931 20.495 5.124 37.729 15.371 49.374 29.811l32.606 52.169c1.397 13.042 4.192 27.482 3.726 43.319 3.261 0 2.795-4.658 6.521-5.59-3.726 9.316-5.59 20.961-6.521 34.469-2.329-7.453 0-18.632 0.466-24.687-3.261 5.124-5.124 1.397-5.124-0.932 0.466-3.726-1.397-3.261-2.795-4.658-5.124-4.658-8.384-9.782-12.11-17.7 2.329-6.055 2.795-14.905-4.658-19.563-2.329-1.397-5.124-3.726-6.521-7.453-1.863-5.124-5.124-11.179-4.193-19.097 0.466-2.329-6.987 5.124-11.179 1.863-18.166-12.576-36.332-27.016-58.224-39.127-11.645 0-20.029-4.192-24.221-9.316-3.726-4.658-0.932-10.713 4.658-11.179 3.261 0 6.987-0.932 9.782 0.932 0.466-1.863 2.329-4.192 4.657-4.192M157.904 16.215l0.932 0.466c4.658 0.932 6.987 7.453 12.11 5.124 0 3.261 0.466 6.521-0.466 8.85-1.397 3.726-5.59 3.726-8.85 3.726-31.208-1.863-49.374 11.179-68.471 22.358-5.124 3.261-10.713 5.59-14.906 9.782-20.029 18.632-41.921 35.866-47.045 70.335l-4.192 38.195c-0.466 4.192-5.124 8.384-4.192 13.508l3.26 22.824c-3.261-3.261-5.124 0.932-4.192 2.795 0.466 1.397 2.329 6.055 5.124 1.863 3.726 6.987 7.453 20.495 12.576 26.55 15.837 18.632 36.332 35.4 53.101 52.169 4.192-0.932 7.453-0.932 8.384-3.727 1.397 2.795-1.397 5.59-3.726 6.056 7.453 4.658 15.837 8.85 27.016 9.781 14.44 0.932 27.948 3.261 40.524 6.522 6.521-1.863 13.042-2.795 20.029-3.261 2.329 0 3.726-3.726 6.521-4.658l0.466-4.658c2.795 4.192 2.329-1.397 0.466-4.192 3.261 2.795 4.192 5.124 5.589 6.987 0-1.397 3.726-6.521 3.727-0.466l0.931-6.055c1.397-0.932 1.863 5.124 3.261 0.931 1.397-4.192 4.192-0.932 6.987-2.329-0.932 1.863-0.466 5.59 2.794 3.261l3.727-3.261c2.329 5.59 6.055 3.261 7.918 2.329 20.495-13.042 40.99-28.413 60.553-43.784l-0.466 6.055 2.329-7.453c2.329 2.329 4.192 0.466 5.124-0.931 2.795-4.658 6.521-9.316 12.577-13.508-7.453 20.029-16.303 35.866-27.482 48.908l-4.658 5.59c0 3.261-0.932 7.453-4.658 7.918-1.863 0.466-5.59-0.932-8.384 1.863-1.397 1.863 3.261 5.59-0.466 2.795-3.261-2.329-6.521 0-10.248 0.932-2.795 0.932 1.863 3.726 2.795 5.589 0.932 1.863 1.863 3.726 1.398 6.056l-5.124-5.59c-6.055 3.261-9.782 9.316-14.906 13.974-2.329 1.863-1.397 5.124-1.397 7.918-3.261 0-6.987-0.932-8.85 0.932-1.397 1.863-0.932 4.658-0.932 7.453-4.658-0.466-5.124-7.453-9.315-6.056-4.192 0.932-8.85 1.397-12.577 3.727 2.795 5.59-4.658 2.329-3.726 3.26-6.987-4.192-13.042-7.453-20.495-4.658-15.837-5.124-35.4-2.795-49.84-0.931 0-2.329 0.466-4.658-0.466-5.124-0.932 2.329-3.726 1.397-3.26 1.397-8.85-6.055-17.7-9.782-27.016-14.905-8.384 0.932-16.303-3.261-18.632-5.59-6.521-6.055-13.974-2.795-20.029-4.192-13.042-3.261-17.7-16.769-19.098-26.084-0.932-4.658-4.658-6.521-6.055-6.056-6.055-19.563-15.371-37.263-22.824-55.429-1.863-4.658-1.397-9.316-1.397-14.44 2.329 0.932 4.658 0.466 4.192-2.794-2.329-15.371-7.918-27.016-13.974-38.195 3.261-15.837 3.726-34.469 11.179-48.443 6.521-12.576 18.632-19.098 27.016-29.811 2.795-3.726 2.795-8.85 5.59-12.11 9.316-9.316 18.632-19.098 28.879-27.482 4.658-3.726 10.247 0 17.234-1.397 2.329-8.384 11.645-15.837 20.495-13.508 3.726 0.932 11.179-8.85 13.508-9.782 3.726-1.397 1.863 3.726 1.863 6.987 8.85-6.987 20.961-10.713 32.14-14.906"
                        fill="#374151" fill-rule="nonzero" stroke="none" stroke-width="1" stroke-linecap="butt"
                        stroke-linejoin="miter" stroke-miterlimit="10" stroke-dasharray="" stroke-dashoffset="0"
                        font-family="none" font-weight="none" font-size="none" text-anchor="none"
                        style="mix-blend-mode: normal" data-fill-palette-color="tertiary"></path>
                    </g>
                    <g transform="matrix(1,0,0,1,64,91.44486197227721)"><svg viewBox="0 0 192 177.11027605544558"
                        height="177.11027605544558" width="192">
                        <g><svg viewBox="0 0 192 177.11027605544558" height="177.11027605544558" width="192">
                            <g><svg viewBox="0 0 192 177.11027605544558" height="177.11027605544558" width="192">
                                <g><svg viewBox="0 0 192 177.11027605544558" height="177.11027605544558" width="192">
                                    <g id="textblocktransform"><svg viewBox="0 0 192 177.11027605544558"
                                        height="177.11027605544558" width="192" id="textblock">
                                        <g><svg viewBox="0 0 192 95.42970297029704" height="95.42970297029704"
                                            width="192">
                                            <g transform="matrix(1,0,0,1,0,0)"><svg width="192"
                                                viewBox="1.2000000476837158 -36.70000076293945 75.75 37.650001525878906"
                                                height="95.42970297029704" data-palette-color="#374151">
                                                <g class="wordmark-text-0" data-fill-palette-color="primary"
                                                  id="text-0">
                                                  <path
                                                    d="M17.75 0.15L17.75 0.15Q12.4 0.15 8.7-2.2 5-4.55 3.1-8.7 1.2-12.85 1.2-18.25L1.2-18.25Q1.2-23.6 3.1-27.78 5-31.95 8.7-34.33 12.4-36.7 17.75-36.7L17.75-36.7Q23.1-36.7 26.78-34.33 30.45-31.95 32.35-27.78 34.25-23.6 34.25-18.25L34.25-18.25Q34.25-12.85 32.35-8.7 30.45-4.55 26.78-2.2 23.1 0.15 17.75 0.15ZM7.5-19.05L7.5-19.05Q7.5-17.5 8.25-16.13 9-14.75 11.2-13.93 13.4-13.1 17.75-13.1L17.75-13.1Q22.1-13.1 24.28-13.93 26.45-14.75 27.2-16.13 27.95-17.5 27.95-19.05L27.95-19.05Q27.95-20.65 27.2-21.93 26.45-23.2 24.28-23.98 22.1-24.75 17.75-24.75L17.75-24.75Q13.4-24.75 11.2-23.98 9-23.2 8.25-21.93 7.5-20.65 7.5-19.05ZM42.8 0.95L42.8 0.95Q39.85 0.95 38.2-0.63 36.55-2.2 36.55-4.8L36.55-4.8Q36.55-7.45 38.25-9.1 39.95-10.75 42.8-10.75L42.8-10.75Q45.6-10.75 47.27-9.13 48.95-7.5 48.95-4.85L48.95-4.85Q48.95-2.25 47.35-0.65 45.75 0.95 42.8 0.95ZM64.1 0.1L64.1 0.1Q58.25 0.1 54.77-3.38 51.3-6.85 51.3-13.2L51.3-13.2Q51.3-17.1 52.9-20.05 54.5-23 57.37-24.68 60.25-26.35 64.1-26.35L64.1-26.35Q68.4-26.35 71.25-24.68 74.1-23 75.52-20.05 76.95-17.1 76.95-13.2L76.95-13.2Q76.95-6.85 73.77-3.38 70.6 0.1 64.1 0.1ZM57.25-14.05L57.25-14.05Q57.25-12.5 58.8-11.88 60.35-11.25 64.1-11.25L64.1-11.25Q67.85-11.25 69.4-11.88 70.95-12.5 70.95-14.05L70.95-14.05Q70.95-15.55 69.4-16.15 67.85-16.75 64.1-16.75L64.1-16.75Q60.35-16.75 58.8-16.15 57.25-15.55 57.25-14.05Z"
                                                    fill="#374151" data-fill-palette-color="primary"></path>
                                                </g>
                                              </svg></g>
                                          </svg></g>
                                        <g transform="matrix(1,0,0,1,0,109.35518694653467)"><svg
                                            viewBox="0 0 114.2426085808581 67.7550891089109" height="67.7550891089109"
                                            width="114.2426085808581">
                                            <g transform="matrix(1,0,0,1,0,0)"><svg width="114.2426085808581"
                                                viewBox="1.75 -35.25 60.70000076293945 36" height="67.7550891089109"
                                                data-palette-color="#374151">
                                                <path
                                                  d="M14.45-35.25Q20.55-35.25 23.85-30.8 27.15-26.35 27.15-17.3L27.15-17.3Q27.15-8.35 23.85-3.8 20.55 0.75 14.45 0.75L14.45 0.75Q8.4 0.75 5.08-3.75 1.75-8.25 1.75-17.25L1.75-17.25Q1.75-26.15 5.08-30.7 8.4-35.25 14.45-35.25L14.45-35.25ZM14.45-30.45Q11.4-30.45 9.93-27.4 8.45-24.35 8.45-17.25L8.45-17.25Q8.45-10.1 9.95-7.13 11.45-4.15 14.45-4.15L14.45-4.15Q17.55-4.15 19.03-7.1 20.5-10.05 20.5-17.3L20.5-17.3Q20.5-24.4 19-27.43 17.5-30.45 14.45-30.45L14.45-30.45ZM34.25-7.05Q35.95-7.05 37-5.9 38.05-4.75 38.05-3.15L38.05-3.15Q38.05-1.55 37-0.4 35.95 0.75 34.25 0.75L34.25 0.75Q32.6 0.75 31.52-0.4 30.45-1.55 30.45-3.15L30.45-3.15Q30.45-4.75 31.52-5.9 32.6-7.05 34.25-7.05L34.25-7.05ZM51.9-27.15Q56.9-27.15 59.67-23.65 62.45-20.15 62.45-13.25L62.45-13.25Q62.45-6.65 59.65-2.95 56.84 0.75 51.9 0.75L51.9 0.75Q46.95 0.75 44.15-2.88 41.35-6.5 41.35-13.25L41.35-13.25Q41.35-19.95 44.15-23.55 46.95-27.15 51.9-27.15L51.9-27.15ZM51.9-22.5Q49.75-22.5 48.75-20.38 47.75-18.25 47.75-13.25L47.75-13.25Q47.75-8.2 48.75-6.08 49.75-3.95 51.9-3.95L51.9-3.95Q54.05-3.95 55.05-6.08 56.05-8.2 56.05-13.25L56.05-13.25Q56.05-18.3 55.05-20.4 54.05-22.5 51.9-22.5L51.9-22.5Z"
                                                  opacity="1" transform="matrix(1,0,0,1,0,0)" fill="#374151"
                                                  class="slogan-text-1" data-fill-palette-color="secondary" id="text-1">
                                                </path>
                                              </svg></g>
                                          </svg></g>
                                      </svg></g>
                                  </svg></g>
                              </svg></g>
                          </svg></g>
                      </svg></g>
                  </svg></g>
                <defs></defs>
              </svg>
              <rect width="320" height="360" fill="none" stroke="none" visibility="hidden"></rect>
            </g>
          </svg></g>
      </g>
    </g>
  </g>
  <rect width="204.0000210156486" height="107.42972413724922" x="218.99999905378593" y="106.44487008673921" rx="2.5"
    ry="2.5" fill="transparent" class="logo-element-hover-target"></rect>
  <rect width="126.2426331803133" height="79.7550742485245" x="218.99999905378593" y="215.8000532929841" rx="2.5"
    ry="2.5" fill="transparent" class="logo-element-hover-target"></rect>
</svg>